<svg xmlns="http://www.w3.org/2000/svg" viewBox="0 0 24 24" width="24" height="24" fill="currentColor"><path fill-rule="evenodd" d="M16.39 6.66L16.11 6.8L15.94 6.98L15.78 7.28L15.22 8.11L15.09 8.39L15.08 8.7L15.22 9.25L15.3 9.89L15.3 10.5L15.25 10.95L15.11 11.59L14.97 12.02L14.67 12.66L14.48 12.97L14.03 13.56L13.56 14.03L13.17 14.34L12.77 14.61L12.31 14.84L11.94 15L11.36 15.17L10.67 15.28L10.39 15.42L10.22 15.61L9.42 16.81L9.34 17.06L9.36 17.38L9.42 17.55L9.52 17.69L9.64 17.81L9.83 17.92L10.14 17.98L10.94 17.95L11.7 17.84L12.45 17.66L13.16 17.41L14.12 16.92L14.3 16.89L14.48 16.92L14.59 16.98L20.11 22.5L20.48 22.73L20.88 22.86L21.36 22.88L21.64 22.83L22.05 22.66L22.33 22.45L22.58 22.17L22.75 21.86L22.88 21.41L22.88 20.97L22.81 20.69L22.67 20.36L22.52 20.12L16.98 14.59L16.91 14.45L16.91 14.16L17.28 13.44L17.48 12.95L17.66 12.45L17.83 11.78L17.95 10.97L17.98 10.52L17.97 9.62L17.91 9.05L17.77 8.33L17.52 7.52L17.33 7.06L17.11 6.8L16.92 6.69L16.61 6.62ZM11.36 2.59L11.17 2.48L10.86 2.42L9.53 2.42L9.02 2.48L8.38 2.61L7.91 2.73L7.17 3L6.52 3.31L5.8 3.75L5.31 4.11L4.55 4.81L4.09 5.33L3.75 5.8L3.28 6.58L3.02 7.14L2.84 7.58L2.66 8.19L2.55 8.66L2.47 9.11L2.41 9.75L2.41 10.62L2.44 11.02L2.55 11.73L2.66 12.2L2.88 12.89L3.11 13.45L3.3 13.81L3.48 14.02L3.67 14.12L3.98 14.19L4.3 14.12L4.48 14.02L4.67 13.81L5.36 12.78L5.44 12.62L5.48 12.45L5.48 12.22L5.27 11.56L5.17 11.17L5.11 10.75L5.11 9.62L5.22 9L5.39 8.44L5.72 7.72L5.94 7.36L6.36 6.81L6.81 6.36L7.25 6.02L7.72 5.72L8.23 5.47L8.83 5.27L9.52 5.12L10.2 5.08L10.36 5.03L10.55 4.92L10.73 4.72L11.17 4.06L11.48 3.73L11.61 3.52L11.66 3.34L11.64 3.03L11.53 2.78Z"/><path class="ox-icon__accent" fill-rule="evenodd" d="M14.05 4.67L13.64 4.52L13.14 4.52L12.73 4.67L12.58 4.78L12.38 4.98L5.92 14.66L5.78 14.92L5.72 15.14L5.72 15.64L5.78 15.86L5.92 16.12L6.11 16.34L6.34 16.52L6.5 16.59L6.77 16.67L7.22 16.67L7.48 16.59L7.64 16.52L7.95 16.27L14.47 6.52L14.59 6.28L14.67 6L14.66 5.5L14.59 5.3L14.45 5.05L14.2 4.78Z"/></svg>
